<?xml version="1.0" encoding="utf-8"?>
<svg viewBox="0 0 512 512">
    <path d="M256 172.657a7.726 7.726 0 01-7.726-7.726V64.392a7.726 7.726 0 1115.452 0V164.93a7.726 7.726 0 01-7.726 7.727z"/>
    <path d="M256 453.868a7.726 7.726 0 01-7.726-7.726v-80.133a7.726 7.726 0 1115.452 0v80.133a7.726 7.726 0 01-7.726 7.726zM343.184 175.927a7.725 7.725 0 01-5.463-13.19l47.683-47.683a7.727 7.727 0 0110.927 10.927l-47.683 47.683a7.703 7.703 0 01-5.464 2.263z"/>
    <path d="M121.107 398.005a7.725 7.725 0 01-5.463-13.19l76.38-76.381a7.727 7.727 0 0110.927 10.927l-76.38 76.381a7.71 7.71 0 01-5.464 2.263z"/>
    <path d="M446.951 263.111h-82.12a7.726 7.726 0 110-15.452h82.12a7.726 7.726 0 110 15.452z"/>
    <path d="M144.74 263.111H65.049a7.726 7.726 0 110-15.452h79.692a7.726 7.726 0 11-.001 15.452z"/>
    <path d="M390.783 397.894a7.704 7.704 0 01-5.463-2.263l-76.27-76.27a7.727 7.727 0 0110.927-10.927l76.27 76.27a7.725 7.725 0 01-5.464 13.19z"/>
    <path d="M165.546 172.657a7.704 7.704 0 01-5.463-2.263l-44.302-44.302a7.727 7.727 0 0110.927-10.927l44.302 44.302a7.725 7.725 0 01-5.464 13.19z"/>
    <path d="M363.665 272.592c29.662-29.737 29.641-77.888-.067-107.596-27.63-27.63-71.212-29.581-101.097-5.857a10.419 10.419 0 01-13.002 0c-29.885-23.724-73.467-21.773-101.097 5.857-29.708 29.708-29.729 77.86-.067 107.596l103.969 103.972a5.227 5.227 0 007.392 0z"/>
    <path d="M363.664 272.596L259.698 376.562a5.235 5.235 0 01-7.397 0l-14.783-14.783 97.63-97.63c29.669-29.731 29.649-77.882-.062-107.592a76.122 76.122 0 00-18.348-13.547c17.101 1.566 33.769 8.89 46.863 21.984 29.702 29.71 29.722 77.861.063 107.602z"/>
    <g>
        <path d="M136.695 411.454c0 19.965-16.184 36.149-36.149 36.149s-36.149-16.184-36.149-36.149c0-13.825 7.768-25.847 19.172-31.915l8.478 14.443c7.17.062 13.361 5.11 14.845 12.043l1.669 7.757 10.601-33.316c10.507 6.326 17.533 17.833 17.533 30.988z"/>
        <path d="M136.695 411.454c0 19.965-16.184 36.149-36.149 36.149-3.956 0-7.757-.639-11.311-1.803 14.423-4.749 24.838-18.337 24.838-34.346 0-3.575-.525-7.036-1.494-10.292l6.583-20.696c10.507 6.326 17.533 17.833 17.533 30.988z"/>
        <path d="M125.601 385.406l-9.937 31.535a7.499 7.499 0 01-7.149 5.241 7.49 7.49 0 01-7.325-5.927l-1.856-8.618a7.491 7.491 0 00-7.325-5.927h-.089a7.477 7.477 0 01-6.481-3.729l-8.222-14.132a35.992 35.992 0 0123.331-8.539 36 36 0 0125.053 10.096z"/>
        <path d="M125.6 385.401l-9.931 31.544a7.545 7.545 0 01-2.72 3.791c-.041.031-.072.052-.113.082a35.583 35.583 0 001.236-9.364c0-15.999-10.405-29.587-24.817-34.336a35.91 35.91 0 0111.291-1.803 36.043 36.043 0 0125.054 10.086z"/>
    </g>
    <g>
        <path d="M512 256c0 19.965-16.184 36.149-36.149 36.149S439.702 275.965 439.702 256c0-13.815 7.757-25.827 19.151-31.905l8.509 14.433c7.16.062 13.351 5.099 14.835 12.033l1.669 7.757 10.446-33.398C504.902 231.214 512 242.783 512 256z"/>
        <path d="M512 256c0 19.965-16.184 36.149-36.149 36.149-3.956 0-7.757-.639-11.311-1.803 14.423-4.749 24.838-18.337 24.838-34.346a35.82 35.82 0 00-1.535-10.405l6.47-20.676C504.902 231.214 512 242.783 512 256z"/>
        <path d="M500.908 229.948l-9.937 31.535a7.499 7.499 0 01-7.149 5.241 7.49 7.49 0 01-7.325-5.927l-1.856-8.618a7.491 7.491 0 00-7.325-5.927h-.088a7.477 7.477 0 01-6.481-3.729l-8.222-14.132a35.992 35.992 0 0123.331-8.539 36.01 36.01 0 0125.052 10.096z"/>
        <path d="M500.905 229.947l-9.931 31.534a7.503 7.503 0 01-2.72 3.791.71.71 0 01-.113.072 35.372 35.372 0 001.236-9.344c0-16.009-10.415-29.587-24.827-34.346a35.973 35.973 0 0111.301-1.803 36.003 36.003 0 0125.054 10.096z"/>
    </g>
    <g>
        <path d="M279.303 503.48A35.988 35.988 0 01256 512c-19.965 0-36.149-16.184-36.149-36.149s16.184-36.149 36.149-36.149a35.949 35.949 0 0118.811 5.275l-15.03 20.645 1.164 2.514a14.783 14.783 0 0114.165 12.208z"/>
        <path d="M244.689 441.505A36.278 36.278 0 01256 439.702a35.949 35.949 0 0118.811 5.275l-9.776 13.423a36.218 36.218 0 00-20.346-16.895zM279.303 503.48A35.988 35.988 0 01256 512c-3.956 0-7.757-.639-11.311-1.803 14.423-4.749 24.838-18.337 24.838-34.346 0-1.679-.113-3.327-.34-4.945a14.834 14.834 0 015.924 9.436z"/>
        <path d="M292.15 475.852c0 14.142-8.114 26.379-19.946 32.315l-4.705-26.473a7.082 7.082 0 00-6.973-5.843 7.083 7.083 0 01-6.43-4.113l-1.487-3.22a7.081 7.081 0 01.718-7.156l14.45-19.71c14.182 4.893 24.373 18.356 24.373 34.2z"/>
        <path d="M292.149 475.851c0 14.144-8.118 26.383-19.944 32.317l-4.018-22.582a35.763 35.763 0 001.339-9.735 36.006 36.006 0 00-9.179-24.065l7.428-10.137c14.186 4.893 24.374 18.358 24.374 34.202z"/>
        <g>
            <path d="M292.149 36.149c0 19.965-16.184 36.149-36.149 36.149s-36.149-16.184-36.149-36.149c0-6.325 1.628-12.28 4.492-17.451l11.94 6.748 10.065-3.42a13.202 13.202 0 014.306-.711c3.224 0 6.408 1.154 8.89 3.348l4.842 4.275a13.33 13.33 0 013.853 5.841l.855-.361 8.54-27.228c8.818 6.594 14.515 17.112 14.515 28.959z"/>
            <path d="M292.149 36.149c0 19.965-16.184 36.149-36.149 36.149-3.956 0-7.757-.639-11.311-1.803 14.423-4.749 24.838-18.337 24.838-34.346 0-.927-.031-1.854-.113-2.761l8.221-26.197c8.817 6.593 14.514 17.111 14.514 28.958z"/>
            <path d="M283.776 13.024L276.195 37.6a5.693 5.693 0 01-3.227 3.568l-3.95 1.667c-3.48 1.469-7.4-.795-7.867-4.544a5.693 5.693 0 00-1.883-3.566l-4.833-4.266a5.696 5.696 0 00-5.604-1.122l-10.925 3.718a5.694 5.694 0 01-4.668-.451l-11.873-6.81C225.814 10.869 239.639 0 256.004 0c11.169 0 21.15 5.065 27.772 13.024z"/>
            <path d="M283.774 13.022l-7.582 24.58a5.654 5.654 0 01-3.224 3.564l-3.946 1.669a.668.668 0 01-.134.051c.422-2.184.639-4.43.639-6.737 0-15.999-10.405-29.587-24.817-34.336A35.592 35.592 0 01256 0c11.177 0 21.15 5.068 27.774 13.022z"/>
        </g>
    </g>
    <g>
        <path d="M72.298 256a35.949 35.949 0 01-5.275 18.811l-20.645-15.03-2.514 1.164a14.783 14.783 0 01-12.208 14.165l-23.231 4.08A35.957 35.957 0 010 256c0-19.965 16.184-36.149 36.149-36.149S72.298 236.035 72.298 256z"/>
        <path d="M72.298 256a35.949 35.949 0 01-5.275 18.811l-17.822-12.97c.309-1.895.474-3.853.474-5.841 0-16.009-10.415-29.597-24.838-34.346a36.283 36.283 0 0111.311-1.803c19.966 0 36.15 16.184 36.15 36.149z"/>
        <path d="M36.148 292.15c-14.142 0-26.379-8.114-32.315-19.946l26.473-4.705a7.082 7.082 0 005.843-6.973 7.083 7.083 0 014.113-6.43l3.22-1.487a7.081 7.081 0 017.156.718l19.71 14.45c-4.893 14.182-18.356 24.373-34.2 24.373z"/>
        <path d="M70.351 267.775c-4.893 14.186-18.358 24.374-34.202 24.374-3.946 0-7.747-.628-11.301-1.803C39.26 285.587 49.675 272.009 49.675 256a32.44 32.44 0 00-.165-3.338c.391.185.762.412 1.123.67z"/>
    </g>
    <g>
        <path d="M437.023 126.104c-14.124 14.113-37.014 14.113-51.128 0-14.113-14.113-14.113-37.004 0-51.128a35.912 35.912 0 0115.597-9.189l3.595 13.248 9.529 4.687a13.464 13.464 0 017.469 11.208l.402 6.439c.144 2.38-.34 4.749-1.401 6.861l.855.35 25.312-13.186c1.545 10.89-1.864 22.345-10.23 30.71z"/>
        <path d="M437.023 126.104c-9.982 9.972-24.333 12.898-36.88 8.777a35.947 35.947 0 0014.247-8.777 35.96 35.96 0 009.952-18.77l22.911-11.94c1.545 10.89-1.864 22.345-10.23 30.71z"/>
        <path d="M447.451 103.83l-22.738 12.017a5.697 5.697 0 01-4.805.241l-3.972-1.614c-3.5-1.422-4.671-5.795-2.35-8.776a5.694 5.694 0 001.191-3.853l-.401-6.434a5.695 5.695 0 00-3.169-4.756l-10.354-5.097a5.694 5.694 0 01-2.982-3.62l-3.58-13.211c13.699-7.406 31.16-5.317 42.732 6.256 7.897 7.898 11.373 18.537 10.428 28.847z"/>
        <path d="M447.449 103.832l-22.736 12.012a5.583 5.583 0 01-3.42.608c6.624-13.495 4.316-30.256-6.902-41.475a35.966 35.966 0 00-14.227-8.767c12.548-4.131 26.888-1.205 36.86 8.777 7.891 7.891 11.373 18.533 10.425 28.845z"/>
    </g>
    <g>
        <path d="M126.104 126.104a35.965 35.965 0 01-17.183 9.601l-3.822-25.26-2.596-.948a14.806 14.806 0 01-18.646 1.38L64.52 97.507c.68-8.221 4.172-16.236 10.456-22.53 14.124-14.113 37.014-14.113 51.128 0 14.114 14.123 14.114 37.014 0 51.127z"/>
        <path d="M126.104 126.104a35.965 35.965 0 01-17.183 9.601l-2.05-13.516c10.611-14.155 9.488-34.336-3.389-47.213a35.953 35.953 0 00-14.247-8.777c12.548-4.121 26.898-1.195 36.87 8.777 14.113 14.124 14.113 37.015-.001 51.128z"/>
        <path d="M74.98 126.103c-10-10-12.915-24.39-8.746-36.955L88.28 104.54a7.082 7.082 0 009.062-.799 7.083 7.083 0 017.455-1.638l3.329 1.226a7.081 7.081 0 014.552 5.568l3.72 24.155c-13.489 6.568-30.215 4.254-41.418-6.949z"/>
        <path d="M116.4 133.048c-8.499 4.141-18.286 4.749-27.166 1.834a35.947 35.947 0 0014.247-8.777 35.967 35.967 0 009.354-16.194z"/>
        <g>
            <path d="M446.192 401.431l-13.217 3.647-4.698 9.539a13.464 13.464 0 01-11.208 7.469l-6.439.402c-2.38.155-4.749-.34-6.861-1.401l-.34.845 13.444 25.27c-10.961 1.648-22.54-1.741-30.977-10.178-14.113-14.124-14.113-37.014 0-51.128 14.113-14.113 37.004-14.113 51.128 0a35.896 35.896 0 019.168 15.535z"/>
            <path d="M412.423 438.847l4.45 8.355a36.316 36.316 0 01-16.73-1.401 35.694 35.694 0 0012.28-6.954zM446.192 401.431l-13.217 3.647-4.698 9.539a13.314 13.314 0 01-4.213 4.955c2.689-11.723-.536-24.539-9.673-33.677a35.953 35.953 0 00-14.247-8.777c12.548-4.121 26.898-1.195 36.88 8.777a35.905 35.905 0 019.168 15.536z"/>
            <path d="M408.17 447.45l-12.017-22.738a5.697 5.697 0 01-.241-4.805l1.614-3.972c1.422-3.5 5.795-4.671 8.776-2.35a5.694 5.694 0 003.853 1.191l6.434-.401a5.695 5.695 0 004.756-3.169l5.097-10.354a5.694 5.694 0 013.62-2.982l13.211-3.58c7.406 13.699 5.317 31.16-6.256 42.732-7.898 7.898-18.537 11.374-28.847 10.428z"/>
            <path d="M437.013 437.023c-7.891 7.891-18.533 11.373-28.845 10.426l-2.194-4.162a35.626 35.626 0 008.417-6.264c8.715-8.715 12.053-20.758 10.013-32.028l2.04-4.141a5.696 5.696 0 013.616-2.987l13.217-3.575c7.396 13.701 5.315 31.162-6.264 42.731z"/>
        </g>
    </g>
</svg>