<?xml version="1.0" encoding="utf-8"?>
<svg viewBox="0 0 34 34" width="34" height="34" fill="currentColor" xmlns="http://www.w3.org/2000/svg" aria-hidden="true">
    <path d="M29.6 2h-3v3c0 .6-.5 1-1 1s-1-.4-1-1V2h-16v3c0 .6-.5 1-1 1s-1-.4-1-1V2h-3C2.1 2 1 3.3 1 5v3.6h32V5c0-1.7-1.8-3-3.4-3zM1 10.7V29c0 1.8 1.1 3 2.7 3h26c1.6 0 3.4-1.3 3.4-3V10.7z"/>
    <g class="buttons">
        <path d="M8.9 27.5H7.5c-.4 0-.8-.3-.8-.8v-2.5c0-.4.3-.8.8-.8H10c.4 0 .8.3.8.8v2.5c-.1.5-.4.8-.9.8z"/>
        <path d="M8.9 18.5H7.5c-.4 0-.8-.3-.8-.8v-2.5c0-.4.3-.8.8-.8H10c.4 0 .8.3.8.8v2.5c-.1.5-.4.8-.9.8z"/>
        <path d="M16.9 27.5h-2.5c-.4 0-.8-.3-.8-.8v-2.5c0-.4.3-.8.8-.8h2.5c.4 0 .8.3.8.8v2.5c0 .5-.3.8-.8.8z"/>
        <path d="M16.9 18.5h-2.5c-.4 0-.8-.3-.8-.8v-2.5c0-.4.3-.8.8-.8h2.5c.4 0 .8.3.8.8v2.5c0 .5-.3.8-.8.8z"/>
        <path d="M24.9 27.5h-2.5c-.4 0-.8-.3-.8-.8v-2.5c0-.4.3-.8.8-.8h2.5c.4 0 .8.3.8.8v2.5c0 .5-.3.8-.8.8z"/>
        <path d="M24.9 18.5h-2.5c-.4 0-.8-.3-.8-.8v-2.5c0-.4.3-.8.8-.8h2.5c.4 0 .8.3.8.8v2.5c0 .5-.3.8-.8.8z"/>
    </g>
</svg>