<?xml version="1.0" encoding="utf-8"?>
<svg viewBox="0 0 512 512" width="32" height="32" fill="currentColor" xmlns="http://www.w3.org/2000/svg" aria-hidden="true">
    <path d="M437.019 74.98C388.668 26.629 324.381 0 256 0 187.62 0 123.333 26.629 74.981 74.98 26.629 123.332 0 187.619 0 256s26.628 132.668 74.981 181.02C123.333 485.371 187.62 512 256 512c68.381 0 132.668-26.629 181.02-74.98C485.372 388.668 512 324.381 512 256s-26.628-132.668-74.981-181.02zM272.068 367.4H271v33.201c0 8.284-6.715 15-15 15-8.283 0-15-6.716-15-15V367.4h-33.199c-8.283 0-15-6.716-15-15s6.717-15 15-15h64.268c18.306 0 33.199-14.894 33.199-33.2 0-18.306-14.894-33.2-33.2-33.2h-32.135c-34.848 0-63.199-28.351-63.199-63.199 0-34.849 28.352-63.2 63.199-63.2H241v-33.2c0-8.284 6.717-15 15-15 8.285 0 15 6.716 15 15v33.2h33.201c8.283 0 15 6.716 15 15s-6.717 15-15 15h-64.268c-18.307 0-33.199 14.893-33.199 33.2 0 18.306 14.893 33.199 33.199 33.199h32.135c34.848 0 63.199 28.352 63.199 63.2s-28.351 63.2-63.199 63.2z"/>
</svg>