
<svg viewBox="0 0 662 662" fill="none" xmlns="http://www.w3.org/2000/svg">
    <g clipPath="url(#a)" fill="#fff">
        <path d="M644.613 308.783a11 11 0 0 1-.978-12.717 66.631 66.631 0 0 0 8.002-51.956 64.49 64.49 0 0 0-32.433-41.23 10.664 10.664 0 0 1-5.235-11.506c.53-2.517.93-5.054 1.201-7.607a10.998 10.998 0 0 0-6.188-11.074 10.985 10.985 0 0 0-12.498 2.126l-52.279 52.273L225.99 545.297l-52.32 52.32a10.994 10.994 0 0 0 8.969 18.686 76.412 76.412 0 0 0 7.586-1.196 10.657 10.657 0 0 1 11.516 5.23 64.496 64.496 0 0 0 41.22 32.449 66.719 66.719 0 0 0 51.867-7.96 11.005 11.005 0 0 1 12.931 1.035 66.209 66.209 0 0 0 43.819 16.596c2.033 0 4.071-.089 6.115-.286a67.42 67.42 0 0 0 46.33-25.357 11.184 11.184 0 0 1 12.431-3.494 66.373 66.373 0 0 0 52.591-1.685 67.607 67.607 0 0 0 35.173-39.566 11.308 11.308 0 0 1 10.773-7.518 68.213 68.213 0 0 0 48.815-19.622 67.258 67.258 0 0 0 19.664-48.701 11.496 11.496 0 0 1 7.57-10.851 67.667 67.667 0 0 0 39.493-35.173 66.318 66.318 0 0 0 1.716-52.46 11.235 11.235 0 0 1 3.53-12.588 67.54 67.54 0 0 0 25.279-46.33 66.272 66.272 0 0 0-16.445-50.043ZM493.887 495.025c-62.849 63.379-156.763 84.535-240.715 54.218l17.662-17.672a210.27 210.27 0 0 0 60.556 9.145c65.864-.223 127.755-31.538 166.953-84.467 39.202-52.933 51.103-121.262 32.115-184.334l17.584-17.584c30.307 83.937 9.182 177.825-54.155 240.694Zm18.686-205.183c14.615 62.734-4.196 128.572-49.747 174.113-45.55 45.545-111.383 64.345-174.117 49.72l223.864-223.833Zm109.694 97.938c-11.439 8.974-15.687 24.364-10.472 37.944a43.707 43.707 0 0 1-1.102 35.059 45.573 45.573 0 0 1-26.511 23.724c-13.742 4.643-22.913 17.626-22.695 32.126a45.057 45.057 0 0 1-12.868 32.47 45.04 45.04 0 0 1-32.199 13.528h-1.471c-14.262.021-26.937 9.099-31.539 22.601a45.479 45.479 0 0 1-23.708 26.553 43.746 43.746 0 0 1-35.173 1.102c-13.523-5.158-28.83-.915-37.778 10.461a45.268 45.268 0 0 1-31.081 16.986 43.829 43.829 0 0 1-33.15-10.783 32.24 32.24 0 0 0-21.744-8.309 33.304 33.304 0 0 0-17.464 4.945 44.041 44.041 0 0 1-34.778 5.36 42.76 42.76 0 0 1-27.327-21.499 32.264 32.264 0 0 0-14.781-14.001l29.708-29.797c94.008 37.939 201.58 16.029 273.257-55.653 71.682-71.682 93.586-179.26 55.647-273.257l29.829-29.833a32.138 32.138 0 0 0 14.001 14.771 42.875 42.875 0 0 1 21.504 27.338 44.1 44.1 0 0 1-5.412 34.845c-7.648 12.301-6.307 28.169 3.301 39.015a44.086 44.086 0 0 1 10.893 33.218 45.266 45.266 0 0 1-16.929 31.086h.042ZM17.688 367.555a66.626 66.626 0 0 0-7.976 51.956 64.486 64.486 0 0 0 32.412 41.23 10.654 10.654 0 0 1 5.23 11.506 73.947 73.947 0 0 0-1.195 7.607 11 11 0 0 0 6.182 11.074 10.995 10.995 0 0 0 12.504-2.126l52.273-52.273 318.251-318.241 52.253-52.263a10.985 10.985 0 0 0 2.121-12.515 10.978 10.978 0 0 0-11.09-6.171c-2.548.27-5.08.67-7.586 1.196a10.65 10.65 0 0 1-11.516-5.23 64.503 64.503 0 0 0-41.188-32.45 66.57 66.57 0 0 0-51.868 7.96 10.988 10.988 0 0 1-12.925-1.034A66.033 66.033 0 0 0 303.636 1.44a67.411 67.411 0 0 0-46.331 25.357 11.203 11.203 0 0 1-12.431 3.494 66.32 66.32 0 0 0-52.595 1.679 67.647 67.647 0 0 0-35.173 39.571 10.75 10.75 0 0 1-10.773 7.519 67.986 67.986 0 0 0-48.832 19.585 67.249 67.249 0 0 0-19.642 48.748 11.51 11.51 0 0 1-7.576 10.851 67.684 67.684 0 0 0-39.493 35.173 66.344 66.344 0 0 0-1.71 52.46 11.243 11.243 0 0 1-3.53 12.588 67.541 67.541 0 0 0-25.28 46.33 66.28 66.28 0 0 0 16.487 50.012 10.984 10.984 0 0 1 .93 12.748Zm149.749-198.949c62.853-63.368 156.762-84.524 240.714-54.218l-17.584 17.641c-73.507-22.206-153.268-2.178-207.564 52.113-54.301 54.295-74.334 134.052-52.133 207.559l-17.641 17.646c-30.317-83.963-9.166-177.887 54.208-240.751v.01Zm-18.681 205.183c-14.626-62.739 4.185-128.582 49.741-174.128 45.55-45.55 111.394-64.346 174.133-49.715L148.756 373.789Zm-109.7-97.938c11.444-8.974 15.692-24.364 10.477-37.939a43.717 43.717 0 0 1 1.097-35.064 45.605 45.605 0 0 1 26.511-23.724 33.387 33.387 0 0 0 22.7-32.136 45.055 45.055 0 0 1 12.863-32.47 45.053 45.053 0 0 1 32.204-13.528h1.472a33.368 33.368 0 0 0 31.533-22.601 45.52 45.52 0 0 1 23.755-26.532 43.745 43.745 0 0 1 35.173-1.102c13.518 5.157 28.82.92 37.768-10.45a45.283 45.283 0 0 1 31.081-16.981 43.787 43.787 0 0 1 33.15 10.783c10.877 9.691 26.839 11.059 39.208 3.359a44.102 44.102 0 0 1 34.777-5.36 42.778 42.778 0 0 1 27.328 21.498 32.233 32.233 0 0 0 14.781 14.002l-29.807 29.833c-94.003-37.975-201.596-16.081-273.278 55.616-71.677 71.693-93.55 179.291-55.559 273.283l-29.828 29.776a32.153 32.153 0 0 0-14.007-14.771 42.887 42.887 0 0 1-21.499-27.338 44.08 44.08 0 0 1 5.408-34.845c7.648-12.301 6.306-28.169-3.297-39.02a44.027 44.027 0 0 1-10.892-33.213 45.264 45.264 0 0 1 16.928-31.086l-.046.01ZM155.893 518.927a38.628 38.628 0 0 1 3.56 4.169 86.356 86.356 0 0 0 3.481 4.246 2.89 2.89 0 0 0-1.046.184c-.335.075-.62.227-.854.457-.287.281-.47.64-.551 1.078-.082.437.018.799.299 1.085.307.312.654.38 1.043.203a4.154 4.154 0 0 0 1.089-.764c.26-.256.43-.448.508-.576.307.312.535.727.685 1.244.151.465.249.982.296 1.549.072.542.106 1.097.101 1.664l-.012 1.392c-.003.309.045.697.144 1.161.099.465.172.956.219 1.472.048.464.057.916.027 1.354-.055.412-.2.733-.434.963-.26.255-.532.395-.816.418a1.05 1.05 0 0 0-.776.302c-.286.281-.314.616-.086 1.005.229.337.484.649.765.935l.46.468c.128.13.021.567-.321 1.312-.341.745-.775 1.63-1.299 2.657-.525.975-1.075 2.001-1.652 3.079-.576 1.026-1.022 1.924-1.338 2.695a35.07 35.07 0 0 1-2.165 4.274 18.711 18.711 0 0 1-2.972 3.763 12.496 12.496 0 0 1-2.842 2.102 68.145 68.145 0 0 1-3.069 1.636 35.018 35.018 0 0 0-3.108 1.596 11.97 11.97 0 0 0-2.803 2.064c-.338.332-.729.819-1.173 1.459-.444.641-.706 1.206-.788 1.695-.028.231.021.541.146.929.151.414.136.71-.046.889-.13.128-.363.255-.7.381-.336.126-.582.214-.737.264a6.961 6.961 0 0 1-2.709.285 12.129 12.129 0 0 1-2.702-.642 11.078 11.078 0 0 1-2.463-1.26 14.42 14.42 0 0 1-2.112-1.758 9.8 9.8 0 0 1-1.148-1.403 8.053 8.053 0 0 0-1.147-1.479 10.137 10.137 0 0 0-2.035-1.604 11.98 11.98 0 0 1-1.996-1.642 6.56 6.56 0 0 1-1.109-1.518 5.538 5.538 0 0 0-1.069-1.556 2.693 2.693 0 0 0-1.154-.706 3.026 3.026 0 0 1-1.192-.745 1.118 1.118 0 0 1-.341-.816c.029-.334-.059-.606-.263-.814a15.98 15.98 0 0 0-.959-.898 15.663 15.663 0 0 1-.959-.898l-.651-.663a13.126 13.126 0 0 1-.765-1.012 2.924 2.924 0 0 1-.455-1.01c-.074-.335.005-.618.24-.848.468-.46 1.23-.621 2.285-.483 1.057.087 2.163.329 3.32.726 1.182.371 2.287.819 3.314 1.344 1.026.524 1.731.982 2.114 1.372.128.13.204.311.228.543a.742.742 0 0 1-.237.539c.283.08.668.238 1.156.475.488.236.834.458 1.038.666.307.312.548.663.726 1.051.203.363.457.7.764 1.012.256.26.55.456.884.588.36.106.707.2 1.042.28.515.108.927.163 1.236.165.309.003.593-.046.852-.147.233-.127.467-.279.7-.458.26-.204.584-.471.974-.803a21.216 21.216 0 0 0 7.656.068 59.462 59.462 0 0 0 4.085-2.787 36.106 36.106 0 0 0 3.702-3.177c.963-.946 1.693-1.868 2.19-2.765a12.8 12.8 0 0 0 1.185-2.774c.292-.952.52-1.916.683-2.895.138-1.004.289-2.047.453-3.128.135-.746.31-1.505.523-2.277.213-.772.4-1.543.562-2.315.161-.772.271-1.545.329-2.318a8.099 8.099 0 0 0-.249-2.361c-.125-.491-.172-1.058-.14-1.703.032-.695-.144-1.238-.527-1.629a1.627 1.627 0 0 0-.384-.312 58.542 58.542 0 0 1-2.61-2.189 114.703 114.703 0 0 0-2.532-2.343c-.819-.729-1.562-1.148-2.232-1.257a4.772 4.772 0 0 0-2.089.059 19.14 19.14 0 0 0-2.17.522c-.749.226-1.588.334-2.516.326-.98-.008-1.846.229-2.598.712-.725.458-1.426.993-2.102 1.606a70.89 70.89 0 0 1-2.065 1.799c-.701.535-1.529.863-2.484.983-.258.05-.44.126-.544.228-.234.23-.391.538-.472.924a1.82 1.82 0 0 1-.51.885c-.39.383-.845.727-1.363 1.032-.492.279-.997.545-1.515.798l-1.554.76a8.883 8.883 0 0 0-1.438.877c-.597.433-1.077.802-1.441 1.109-.338.28-.675.535-1.012.764a12.24 12.24 0 0 1-1.165.531c-.465.151-1.085.3-1.86.448a21.128 21.128 0 0 0-6.247 2.304 19.298 19.298 0 0 0-3.316-1.112c-.464.099-.917.211-1.356.336-.439.073-.891.134-1.355.181-.412-.107-1.067-.357-1.966-.752-.873-.42-1.784-.88-2.733-1.378a111.225 111.225 0 0 1-2.694-1.493c-.795-.497-1.333-.888-1.614-1.174a10.417 10.417 0 0 1-1.491-1.908c-.407-.674-.593-1.462-.56-2.364.028-.129.055-.283.082-.464.028-.231-.022-.412-.15-.542-.128-.13-.321-.119-.58.033-.259.101-.49.047-.695-.161a.423.423 0 0 1-.076-.155.89.89 0 0 0-.153-.233 8.481 8.481 0 0 1-.79-2.444 15.555 15.555 0 0 1-.208-2.709c.008-.928.068-1.829.178-2.705.112-.927.235-1.79.371-2.588.109-.566.1-1.146-.023-1.74-.098-.62-.08-1.148.053-1.585l.546-.537c.156-.205.326-.396.508-.575.208-.205.403-.371.584-.498l.585-.575c.184-.385.264-.694.24-.926a8.525 8.525 0 0 1-.109-.736 1.613 1.613 0 0 1 .084-.695c.105-.257.379-.602.82-1.037.287-.281.586-.549.897-.804l.859-.843c.988-.971 1.95-1.942 2.887-2.914.963-.997 1.938-1.981 2.926-2.952a75.601 75.601 0 0 1 2.106-1.992 20.038 20.038 0 0 1 2.26-1.913 8.616 8.616 0 0 1 1.672-1.03 6.914 6.914 0 0 0 1.596-1.185c.468-.459.704-.87.707-1.231a2.704 2.704 0 0 0-.107-1.045 6.847 6.847 0 0 1-.146-1.007c-.022-.335.161-.694.551-1.078.546-.536 1.246-.942 2.099-1.218a23.564 23.564 0 0 0 2.368-.946l.114.194c.152.311.368.609.649.895a6.56 6.56 0 0 0 1.499 1.135l1.694.788c.565.263 1.117.539 1.656.827a5.255 5.255 0 0 1 1.537 1.096c.281.286.523.585.727.896.178.285.407.571.688.857.511.52.986.795 1.424.825.412.003.708.096.887.278.204.208.292.48.263.815-.054.309.059.606.34.892a25.062 25.062 0 0 0 2.11 1.914 23.26 23.26 0 0 1 2.072 1.874c.23.234.562.598.996 1.092.46.468.868.987 1.224 1.557.356.519.596 1.05.72 1.592.151.517.044.955-.321 1.312-.39.384-.907.611-1.552.683-.671.045-1.264.04-1.779-.016a4.978 4.978 0 0 1-1.891-.442 16.47 16.47 0 0 1-1.732-.982 29.817 29.817 0 0 0-1.692-1.021 6.266 6.266 0 0 0-1.85-.712 99.344 99.344 0 0 1-2.972-.606l-2.932-.8c-.746-.187-1.313-.269-1.7-.247a2.106 2.106 0 0 0-1.008.301 3.622 3.622 0 0 0-.934.688c-.286.281-.689.599-1.207.956-.545.382-1.128.725-1.75 1.028-.595.279-1.191.583-1.787.913-.595.278-1.178.595-1.748.951a7.323 7.323 0 0 0-1.596 1.185 11.202 11.202 0 0 0-1.957 2.612 24.312 24.312 0 0 0-1.459 3.197 52.356 52.356 0 0 0-1.228 3.354 35.19 35.19 0 0 1-1.265 3.082c.704 2.017 1.835 3.819 3.394 5.406 1.124 1.144 2.174 1.952 3.15 2.425.975.473 1.939.752 2.893.838.953.034 1.908-.035 2.863-.207.981-.198 2.014-.395 3.099-.592 1.111-.222 2.068-.574 2.871-1.057a16.217 16.217 0 0 0 2.376-1.951c.442-.435.859-.869 1.249-1.304.417-.46.846-.908 1.288-1.342a6.914 6.914 0 0 1 1.596-1.185c.57-.304 1.152-.57 1.747-.797a35.152 35.152 0 0 0 1.748-.874 6.73 6.73 0 0 0 1.557-1.146c.442-.434.833-.869 1.172-1.304.365-.461.756-.896 1.172-1.305a2.487 2.487 0 0 1 1.243-.685c.44-.125.917-.211 1.433-.258a23.27 23.27 0 0 0 1.433-.258 3.242 3.242 0 0 0 1.321-.685 23.896 23.896 0 0 1 1.978-.562 8.703 8.703 0 0 1 1.548-.219 5.831 5.831 0 0 1 1.624.092 23.72 23.72 0 0 1 2.084.405 6.223 6.223 0 0 0 2.396.176 5.987 5.987 0 0 1 2.435.215c.283.08.565.237.846.472.256.208.525.404.807.587.257.157.526.275.809.355.284.028.568-.072.854-.302.307.261.601.534.882.82.282.234.563.495.844.781Zm61.517-98.697c.103.104.242.376.419.816.176.44.352.931.528 1.474.202.517.365 1.021.489 1.512.125.491.186.84.184 1.046l.117-.037a.491.491 0 0 0-.118.192l-.195.191a1.971 1.971 0 0 1-.313.384 72.57 72.57 0 0 1-.351.345l.118-.192a7.575 7.575 0 0 1-1.945 1.298c-.673.252-1.433.258-2.282.018a11.64 11.64 0 0 1-.771-.316 50.24 50.24 0 0 1-2.309-1.18c-.333-.235-.564-.418-.692-.548a8.604 8.604 0 0 1-.612-.701 4.236 4.236 0 0 0-.574-.74 16.906 16.906 0 0 0-2.572-2.15 16.954 16.954 0 0 1-2.572-2.15 8.32 8.32 0 0 1-1.299-1.713 5.04 5.04 0 0 1-.64-2.055l-.195.192c-.312.306-.648.458-1.009.455-.387-.029-.788.161-1.204.569a16.625 16.625 0 0 0-2.542 3.188 17.04 17.04 0 0 1-2.62 3.264l-1.248 1.226c-.442.383-.883.791-1.326 1.226a14.607 14.607 0 0 0-2.111 2.611 13.979 13.979 0 0 1-1.994 2.496c-.078.077-.13.102-.156.076-.051-.052-.024-.207.082-.463.08-.283.094-.451.043-.503-.102-.104-.244-.066-.426.112l-.312.307c-.209.204-.288.487-.24.849.074.335.007.683-.203 1.042a6.735 6.735 0 0 1-1.095 1.383l-1.287 1.264c-.26.256-.65.613-1.169 1.073-.52.459-1.065.893-1.636 1.3a9.808 9.808 0 0 1-1.787.913c-.595.175-1.097.106-1.506-.207-.21.359-.264.694-.164 1.004.101.259.214.53.341.815.152.259.253.544.302.853.023.284-.148.631-.512 1.04-.677.767-.915 1.461-.715 2.082.201.62.557 1.191 1.068 1.711.281.286.575.559.882.82.307.26.601.534.882.82a88.59 88.59 0 0 1 2.989 3.197c.97 1.04 1.966 2.08 2.988 3.12l1.763 1.795a43.729 43.729 0 0 0 2.303 2.031c.794.6 1.563 1.097 2.307 1.49.718.367 1.285.424 1.7.17.259-.153.518-.331.778-.535l.702-.69a15.741 15.741 0 0 0 2.346-2.918 16.423 16.423 0 0 1 2.385-2.957 4.453 4.453 0 0 1 1.168-.84c.44-.228.829-.509 1.167-.841.495-.485.642-1.09.442-1.813a6.939 6.939 0 0 0-1.063-2.253 17.594 17.594 0 0 0-1.682-2.18 57.034 57.034 0 0 0-1.379-1.482 32.437 32.437 0 0 0-1.956-1.835 67.836 67.836 0 0 1-1.956-1.912l.234-.23a7.461 7.461 0 0 1 2.14-1.489 7.299 7.299 0 0 0 2.101-1.451c.26-.256.443-.46.547-.614.511.52 1.113.951 1.806 1.292a6.747 6.747 0 0 1 1.845 1.331c.664.676.722 1.463.172 2.361a9.48 9.48 0 0 1 1.581.594c.487.236.923.549 1.306.939.281.286.536.598.765.935.204.311.446.61.727.896.256.26.538.392.847.394.31-.049.555.018.733.2.307.312.56.83.76 1.554a4.48 4.48 0 0 0 1.067 1.788 15.334 15.334 0 0 0 1.919 1.641c.718.522 1.473 1.057 2.268 1.606a68.339 68.339 0 0 1 2.382 1.722 19.006 19.006 0 0 1 2.187 1.914c.409.417.805.871 1.187 1.364.409.468.739.987.992 1.556a5.2 5.2 0 0 1 .488 1.667 4.187 4.187 0 0 1-.093 1.778c-.545.434-1.102.7-1.67.798a5.621 5.621 0 0 1-1.74-.054 8.324 8.324 0 0 1-1.657-.672c-.538-.34-1.05-.706-1.537-1.097a17.478 17.478 0 0 1-1.996-1.719c-.562-.572-1.164-.925-1.808-1.06-.643-.186-1.43-.051-2.362.404-.906.431-2.088 1.361-3.544 2.792-.416.409-.976 1.036-1.68 1.88a19.405 19.405 0 0 0-1.84 2.652c-.576.923-.971 1.848-1.185 2.774-.189.901-.014 1.624.522 2.17.307.313.639.599.998.86.359.209.692.47.999.782.255.26.498.533.727.819.23.285.485.571.766.857.69.703 1.419 1.366 2.187 1.992.742.599 1.458 1.25 2.148 1.952a11.327 11.327 0 0 1 1.873 2.531c.533.907 1.17 1.737 1.911 2.491.818.833 1.664 1.304 2.54 1.415.876.059 1.754-.088 2.633-.441a11.54 11.54 0 0 0 2.489-1.525 26.508 26.508 0 0 0 2.143-1.876 42.188 42.188 0 0 0 3.515-3.913 42.344 42.344 0 0 1 3.515-3.914 33.09 33.09 0 0 1 2.456-2.182 32.888 32.888 0 0 0 2.455-2.183 77.354 77.354 0 0 0 1.952-1.993 12.396 12.396 0 0 0 1.684-2.422c.472-.872.75-1.733.835-2.583.085-.902-.178-1.794-.789-2.676-.178-.233-.254-.44-.226-.62.028-.232.081-.438.16-.618.079-.231.133-.437.16-.617.027-.18-.048-.361-.227-.543-.205-.209-.513-.366-.924-.473a4.242 4.242 0 0 1-1.079-.473 13.49 13.49 0 0 1-1.651-1.291l-1.495-1.521c-.766-.781-1.314-1.572-1.642-2.374-.327-.854-.836-1.631-1.526-2.334a5.793 5.793 0 0 0-.614-.546l-.575-.586c-.153-.156-.19-.427-.109-.813.081-.386.226-.784.436-1.195.185-.436.394-.847.63-1.232.235-.384.431-.653.587-.806.65-.639 1.413-.929 2.289-.87.851.034 1.699.273 2.546.719.873.42 1.693.943 2.461 1.568a23.337 23.337 0 0 1 1.88 1.68c.793.806 1.622 1.78 2.488 2.922a49.687 49.687 0 0 1 2.52 3.658 54.064 54.064 0 0 1 2.325 3.849 48.253 48.253 0 0 1 1.71 3.456c.202.518.314.944.337 1.28.049.309.046.619-.008.928-.054.257-.121.553-.202.887-.08.283-.109.67-.087 1.16.022.438-.228.99-.75 1.656-.495.64-1.068 1.28-1.718 1.918-.494.486-.975.933-1.443 1.341-.467.408-.818.728-1.052.958-.859.843-1.459 1.637-1.8 2.381-.316.719-.708 1.309-1.176 1.769-.338.332-.623.484-.855.456-.257-.054-.49.022-.698.226-.182.179-.274.423-.277.733-.003.309-.16.617-.472.923l-.976.959c-.337.28-.675.587-1.013.919a149.991 149.991 0 0 0-5.659 5.867 201.337 201.337 0 0 1-5.544 5.983 35.13 35.13 0 0 0-3.481 4.339 28.095 28.095 0 0 1-3.556 4.262c-.468.46-1.053.931-1.753 1.415-.675.51-1.4.916-2.176 1.218a5.728 5.728 0 0 1-2.247.367c-.772-.058-1.453-.387-2.04-.985-.563-.572-.891-1.322-.986-2.251a12.217 12.217 0 0 1 .064-2.9c.164-1.03.379-2.033.646-3.011.24-1.003.39-1.865.448-2.587a6.515 6.515 0 0 1-.614-.547l-.537-.546-1.149-1.17a6.518 6.518 0 0 1-.916-1.4c-.178-.286-.316-.686-.415-1.203-.098-.568-.262-.969-.492-1.203a1.566 1.566 0 0 0-.615-.392 16.8 16.8 0 0 1-.655-.354c-.976-.421-1.797-.841-2.464-1.259-.64-.444-1.344-1.056-2.11-1.836l-1.188-1.21c-.332-.389-.638-.753-.919-1.091a19.67 19.67 0 0 1-.801-1.205c-.254-.467-.52-.998-.798-1.593-.283-.08-.669-.238-1.156-.474-.488-.237-.834-.459-1.039-.667l-4.896-6.076c-.102-.052-.243-.17-.422-.352a3.091 3.091 0 0 1-.573-.817 3.27 3.27 0 0 0-.611-.856 7.166 7.166 0 0 0-2.037-1.449 7.625 7.625 0 0 1-2.075-1.488c-.204-.208-.395-.506-.572-.894-.177-.388-.38-.803-.608-1.243a15.09 15.09 0 0 0-.722-1.437 7.626 7.626 0 0 0-1.147-1.48c-.358-.364-.755-.587-1.193-.668a2.402 2.402 0 0 1-1.116-.667 2.913 2.913 0 0 1-.685-1.166 3.132 3.132 0 0 0-.763-1.244 5.037 5.037 0 0 0-1.768-1.176 24.57 24.57 0 0 0-1.965-.83 232.91 232.91 0 0 1-2.275-.832c-.564-.263-1.079-.396-1.543-.4-.489-.03-.993.107-1.512.412-.518.253-1.179.724-1.984 1.413a3.63 3.63 0 0 1-1.36.723 5.684 5.684 0 0 1-1.625.063 6.906 6.906 0 0 1-1.582-.439 3.763 3.763 0 0 1-1.269-.824c-.459-.468-.635-1.062-.525-1.783.084-.747.361-1.531.833-2.352a17.274 17.274 0 0 1 1.724-2.614 36.252 36.252 0 0 1 2.073-2.573 51.11 51.11 0 0 1 1.953-2.226c.624-.664 1.08-1.189 1.367-1.573.444-.589.9-1.139 1.368-1.651.469-.511.963-1.023 1.483-1.534a55.826 55.826 0 0 1 3.158-2.872 86.977 86.977 0 0 0 3.159-2.95 22.833 22.833 0 0 0 2.892-3.455 23.643 23.643 0 0 1 2.931-3.493 17.29 17.29 0 0 1 3.271-2.524 18.836 18.836 0 0 0 3.154-2.485c.91-.895 1.705-1.88 2.385-2.957a14.667 14.667 0 0 1 2.347-2.996c.39-.383.818-.727 1.285-1.032 1.185.062 2.217.071 3.093.027a11.594 11.594 0 0 1 2.514.061 6.47 6.47 0 0 1 2.314.639c.796.342 1.693.943 2.691 1.803.358.312.78.715 1.266 1.21.46.468.933.923 1.419 1.366.46.416.921.755 1.383 1.017.487.237.9.266 1.236.089.358.364.355.725-.009 1.082.384.339.832.639 1.345.902.488.236.989.485 1.502.748.488.236.975.498 1.463.786.461.262.858.562 1.19.9Zm-24.354 42.787c-.156.154-.273.32-.352.5-.079.18-.055.386.072.619 1.55-.398 2.867-.619 3.95-.661 1.084-.093 1.935-.137 2.554-.132.644-.02 1.07-.081 1.277-.182.182-.127.172-.45-.03-.967-.252-.673-.725-1.076-1.42-1.211-.669-.161-1.391-.142-2.166.058a8.42 8.42 0 0 0-2.212.87c-.725.354-1.283.723-1.673 1.106Zm140.859-92.853c.23.235.523.559.881.975.357.416.482.803.376 1.163-.132.386-.084.773.144 1.162.255.363.536.701.842 1.013.307.312.575.611.804.896.204.26.215.479.033.658a.778.778 0 0 1-.388.229.59.59 0 0 0-.428.189c-.13.128-.196.321-.198.579-.002.257.06.451.188.581a.59.59 0 0 0 .424.197c.155-.05.296-.01.424.12.102.104.035.426-.202.965a29.658 29.658 0 0 1-.943 1.693 14.872 14.872 0 0 1-1.098 1.77c-.366.563-.627.922-.783 1.075a11.532 11.532 0 0 1-3.307 2.253 124.034 124.034 0 0 0-3.651 1.746c-1.424.684-2.804.865-4.142.544-1.312-.347-2.596-.925-3.852-1.736a44.048 44.048 0 0 1-3.689-2.662c-1.177-.99-2.343-1.761-3.499-2.312-.513-.263-.897-.524-1.153-.784-.255-.26-.434-.494-.535-.701a2.99 2.99 0 0 1-.188-.659 6.715 6.715 0 0 0-.072-.542.727.727 0 0 0-.19-.427c-.306-.312-.704-.535-1.193-.668-.488-.133-.988-.46-1.499-.98l-.805-.819a13.18 13.18 0 0 0-.804-.897c-.946-.962-1.816-1.666-2.611-2.111a8.781 8.781 0 0 0-2.389-1.026 15.256 15.256 0 0 0-2.586-.526 70.2 70.2 0 0 1-3.166-.569c-.183.282-.405.55-.665.806l-.741.728c-.52.511-1.066.996-1.637 1.455-.545.434-1.078.906-1.598 1.417a13.12 13.12 0 0 0-1.524 1.804 12.524 12.524 0 0 1-1.524 1.804c-.364.358-.78.663-1.246.917-.492.228-.92.521-1.284.878-.442.435-.795.96-1.058 1.576a5.285 5.285 0 0 0-.519 1.891 4.945 4.945 0 0 0 .137 1.935c.176.594.493 1.125.953 1.593l1.227 1.249a53.08 53.08 0 0 1 5.968 7.245l.841 1.168c.254.363.561.727.918 1.091 1.048 1.066 2.099 1.72 3.154 1.961a8.201 8.201 0 0 0 3.171.028 14.126 14.126 0 0 0 3.025-1.056 32.038 32.038 0 0 1 2.873-1.212c.88-.353 1.719-.539 2.518-.558.826-.044 1.571.272 2.235.948.256.26.446.558.572.895.127.284.227.595.301.93.199.879.283 1.614.252 2.207a4.897 4.897 0 0 1-.362 1.582 6.734 6.734 0 0 1-.787 1.463 59.074 59.074 0 0 0-1.176 1.768 11.052 11.052 0 0 1-1.212 1.575c-.417.512-.86.998-1.328 1.458a11.956 11.956 0 0 1-2.414 1.835 13.812 13.812 0 0 0-2.375 1.874 13.12 13.12 0 0 0-1.524 1.804c-.47.614-.927 1.242-1.371 1.883a25.463 25.463 0 0 1-1.331 1.921c-.444.641-.939 1.23-1.485 1.766a9.828 9.828 0 0 1-1.325 1.071 5.214 5.214 0 0 1-1.592.721 4.047 4.047 0 0 1-1.664.179c-.541-.083-1.028-.345-1.463-.787a2.495 2.495 0 0 1-.685-1.243 3.818 3.818 0 0 1-.026-1.431 7.026 7.026 0 0 1 .477-1.466 4.98 4.98 0 0 1 .746-1.192c.26-.307.481-.55.663-.729.208-.204.352-.396.431-.576.105-.205.184-.437.238-.694.054-.257.083-.592.086-1.005.002-.258.017-.477.045-.657a1.25 1.25 0 0 1 .353-.577c.13-.127.273-.242.428-.344.156-.102.299-.216.429-.344a1.64 1.64 0 0 0 .432-.808c.24-.849.234-1.636-.018-2.36a7.596 7.596 0 0 0-1.103-2.059 19.882 19.882 0 0 0-1.684-1.948 11.958 11.958 0 0 1-1.453-1.947c-.432-.7-.89-1.297-1.376-1.791a14.71 14.71 0 0 0-2.996-2.347 16.365 16.365 0 0 1-2.956-2.385 32.474 32.474 0 0 1-2.986-3.506 32.38 32.38 0 0 0-2.985-3.507 11.348 11.348 0 0 0-.844-.781l-.805-.819a60.856 60.856 0 0 1-5.091-5.885 61.104 61.104 0 0 0-5.091-5.884 42.185 42.185 0 0 0-3.146-2.889 58.623 58.623 0 0 1-1.651-1.368 35.259 35.259 0 0 0-2.112-1.682 24.535 24.535 0 0 0-2.345-1.529c-.795-.497-1.591-.839-2.389-1.026-.797-.24-1.57-.298-2.319-.176-.748.071-1.421.4-2.019.988-.13.128-.261.281-.391.461a2.865 2.865 0 0 1-.352.422c-.286.281-.597.433-.932.456a2.875 2.875 0 0 1-1.042-.203 5.936 5.936 0 0 1-1.039-.589 11.75 11.75 0 0 1-.767-.703c-.869-.884-1.287-1.752-1.254-2.602.06-.876.338-1.711.835-2.506a11.532 11.532 0 0 1 1.953-2.303 33.658 33.658 0 0 0 1.991-2.11 14.424 14.424 0 0 0 1.645-2.305 11.086 11.086 0 0 1 1.799-2.305 16.488 16.488 0 0 1 3.387-2.561 16.452 16.452 0 0 0 3.387-2.561 20.641 20.641 0 0 0 2.227-2.571 27.35 27.35 0 0 0 1.728-2.924c.262-.513.549-.923.861-1.23a16.488 16.488 0 0 1 3.387-2.561 20.52 20.52 0 0 0 3.425-2.445 14.893 14.893 0 0 1 2.49-1.679 10.79 10.79 0 0 1 2.833-1.174 7.811 7.811 0 0 1 2.981-.322 5.54 5.54 0 0 1 2.775 1.03c.512.366 1.116.616 1.811.751.669.109 1.326.179 1.97.211.645-.02 1.225-.002 1.74.054.515.004.863.098 1.042.28.178.182.228.414.148.697-.079.231-.017.451.188.659.127.13.346.196.655.199.336-.023.71-.032 1.122-.029.412.004.824.059 1.236.166a1.74 1.74 0 0 1 1.04.512c.383.39.598.869.644 1.436.047.517.262.97.646 1.36l.193.04.393-.693.154.002a6.2 6.2 0 0 1 1.42 1.211l1.189 1.209a53.708 53.708 0 0 1 1.57 1.677 18.161 18.161 0 0 1 1.53 1.947c.458.675.826 1.361 1.103 2.06.278.698.362 1.382.253 2.051a4.273 4.273 0 0 1-.32 1.158 5.823 5.823 0 0 0-.395 1.002c-.132.334-.2.681-.203 1.042-.003.361.097.749.299 1.163.305.57.492 1.203.563 1.9.072.696.13 1.406.175 2.128.046.671.13 1.329.253 1.975.15.62.454 1.164.914 1.632.741.754 1.6 1.29 2.577 1.608 1.003.293 1.979.636 2.93 1.032.976.421 1.886.931 2.732 1.532.82.574 1.613 1.2 2.381 1.877a43.707 43.707 0 0 1 2.302 2.031 43.703 43.703 0 0 0 2.381 1.955c.358.261.986.666 1.884 1.215.898.498 1.847.971 2.849 1.418 1.001.447 1.953.765 2.853.953.901.188 1.546.091 1.936-.292.338-.332.433-.783.283-1.351a13.065 13.065 0 0 0-.641-1.823 31.451 31.451 0 0 1-.679-2.017c-.174-.698-.13-1.329.133-1.894.883-.714 1.699-1.21 2.45-1.487.776-.302 1.511-.386 2.206-.251.669.109 1.35.412 2.042.908.692.444 1.421 1.056 2.188 1.836Zm-46.925-24.429c-.358-.364-.845-.703-1.461-1.018a17.128 17.128 0 0 0-4.201-1.545c-.695-.187-1.312-.296-1.853-.326-.547.536-.949.855-1.208.956-.258.101-.465.125-.619.072a8.177 8.177 0 0 0-.617-.238c-.205-.105-.54-.082-1.006.069-1.344.452-2.496.919-3.454 1.4-.958.481-1.944 1.22-2.959 2.217-.286.281-.495.64-.628 1.077-.107.412-.264.72-.472.924a11.042 11.042 0 0 1-1.947 1.53 9.308 9.308 0 0 0-1.985 1.49 16.656 16.656 0 0 0-2.347 2.919 63.148 63.148 0 0 1-1.372 2.192 8.157 8.157 0 0 0-1.025 2.156 4.898 4.898 0 0 0-.135 2.204c.148.723.605 1.474 1.372 2.255a16.957 16.957 0 0 0 2.572 2.149 14.648 14.648 0 0 1 2.611 2.112c.383.39.689.831.916 1.322.254.467.495.946.722 1.438.203.466.417.944.645 1.436.254.467.572.895.956 1.285.46.468.971.911 1.535 1.328a6.006 6.006 0 0 0 1.772.789c.591.134 1.184.14 1.778.016.62-.149 1.217-.505 1.789-1.067a5.578 5.578 0 0 0 1.253-1.845c.265-.72.67-1.348 1.216-1.884a2.197 2.197 0 0 1 1.049-.571c.388-.126.789-.238 1.202-.338.413-.099.84-.211 1.279-.336.414-.151.79-.393 1.128-.725.26-.256.481-.524.664-.806.158-.308.289-.617.395-.925a38.81 38.81 0 0 1 1.971-4.236c.761-1.463 1.687-2.731 2.78-3.804.286-.281.47-.77.554-1.465.058-.721.052-1.534-.017-2.436a43.63 43.63 0 0 0-.4-2.904 28.127 28.127 0 0 0-.709-2.907c-.275-.956-.565-1.771-.868-2.444-.303-.724-.595-1.23-.876-1.516Zm79.961-102.788c.92.936 1.492 1.831 1.717 2.684.225.801.256 1.613.094 2.437-.161.772-.452 1.569-.872 2.39a45.573 45.573 0 0 0-1.298 2.502c-.42.821-.763 1.721-1.029 2.698-.292.951-.379 1.982-.26 3.091a9.02 9.02 0 0 0 .864 2.908c.431.906.912 1.813 1.446 2.72a48.29 48.29 0 0 1 1.522 2.798c.482.906.795 1.902.94 2.986.049.31.111.607.186.891.075.233.228.466.458.7a5.35 5.35 0 0 0 1.037.821c.359.21.679.457.96.744.255.26.65.766 1.185 1.518a46.211 46.211 0 0 1 1.757 2.491 51.62 51.62 0 0 1 1.83 3.032 33.112 33.112 0 0 1 1.635 3.07c.482.958.822 1.824 1.021 2.6.226.749.247 1.291.063 1.624 1.566.762 3.026 1.832 4.381 3.21.817.832 1.34 1.443 1.569 1.832.229.337.33.621.302.853-.002.206-.03.438-.084.695-.027.232.098.62.377 1.164a42.714 42.714 0 0 1 1.782 3.999 11.1 11.1 0 0 0 2.366 3.578c.256.26.574.714.955 1.362.381.597.724 1.257 1.026 1.982.303.724.517 1.409.64 2.055.123.645.029 1.122-.284 1.428.282.235.59.418.924.55l1.08.319c.36.054.72.161 1.08.319.36.106.667.289.923.549.077.078.229.389.456.932.253.518.493 1.126.718 1.824.226.698.413 1.409.562 2.132.148.723.155 1.329.022 1.818a7.49 7.49 0 0 1-.397 1.156 7.626 7.626 0 0 1-.514 1.272c-.184.437-.407.86-.668 1.27a5.028 5.028 0 0 1-.743.961c-.131.127-.48.318-1.05.57a20.16 20.16 0 0 1-1.785.758c-.621.252-1.229.492-1.824.719-.595.175-.969.262-1.124.26-.412-.003-1.042-.202-1.89-.596-.846-.446-1.757-.931-2.732-1.455a484.39 484.39 0 0 1-2.77-1.649c-.898-.549-1.59-.942-2.078-1.178a254.141 254.141 0 0 1-3.62-1.734 78.262 78.262 0 0 1-3.541-1.887 42.21 42.21 0 0 1-1.539-.865 8.025 8.025 0 0 0-1.579-.749l-.23-.234a4.236 4.236 0 0 1-.878-1.283 3.979 3.979 0 0 0-.878-1.362c-.255-.26-.601-.482-1.038-.666a89.238 89.238 0 0 1-3.771-2.122 174.46 174.46 0 0 0-3.732-2.16 12.78 12.78 0 0 0-1.964-.907l-2.081-.869a30.58 30.58 0 0 1-2.041-.984 8.606 8.606 0 0 1-1.651-1.291 5.357 5.357 0 0 1-1.446-2.643 54.793 54.793 0 0 0-2.543-1.105 32.985 32.985 0 0 1-2.502-1.298 22.495 22.495 0 0 1-3.267-2.311 63.725 63.725 0 0 0-2.956-2.385 21.17 21.17 0 0 0-3.114-2.077c-1.103-.654-2.388-1.129-3.855-1.426-1.004-.189-1.802-.248-2.396-.176-.619.046-1.162.196-1.628.45a6.088 6.088 0 0 0-1.439.954c-.468.408-1.065.867-1.791 1.376a7.452 7.452 0 0 1-3.376 1.247c-1.239.143-2.331-.266-3.276-1.228-.486-.494-.726-1.051-.72-1.669.031-.645.218-1.313.559-2.006a11.68 11.68 0 0 1 1.372-2.115 35.663 35.663 0 0 1 1.682-2.112 82.078 82.078 0 0 1 1.564-1.92c.495-.589.834-1.101 1.019-1.538.262-.513.524-1.001.786-1.462a6.776 6.776 0 0 1 1.095-1.383 15.205 15.205 0 0 1 1.714-1.454 41.272 41.272 0 0 0 1.791-1.377 438.76 438.76 0 0 1 1.948-1.607 8.835 8.835 0 0 1 1.983-1.258 5.018 5.018 0 0 1 2.209-.483c.748-.02 1.571.22 2.469.717.513.263.936.563 1.268.901.536.546.84 1.168.911 1.864a6.213 6.213 0 0 1-.134 2.049c-.16.669-.373 1.363-.637 2.082a22.964 22.964 0 0 0-.713 1.928l.384.312c.46.469.829 1 1.107 1.596.279.595.325 1.24.138 1.934.723-.148 1.367-.039 1.931.327a8.85 8.85 0 0 1 1.574 1.29c.537.495 1.1.989 1.688 1.484a3.638 3.638 0 0 0 1.965.83c.979.112 1.814.415 2.506.911a12.365 12.365 0 0 1 2.035 1.681l1.418 1.444c.434.442.881.871 1.342 1.288.461.365.973.679 1.538.941.308.158.629.302.963.434.309.106.591.289.846.549.23.234.357.493.38.777.023.284-.018.58-.124.888.951.395 1.939.829 2.966 1.303a5.342 5.342 0 0 0 3.09.414c.102.155.23.311.383.467l.422.429c.357.364.767.729 1.227 1.094.461.365.935.717 1.422 1.056.513.314 1.026.602 1.539.865a7.89 7.89 0 0 0 1.503.593l.117-.038.191.196c.332.338.535.752.608 1.242.073.439.276.828.608 1.166.256.26.628.482 1.116.667.489.133 1.016.254 1.582.362.541.082 1.095.152 1.661.208.541.031.979.06 1.314.089l.234-.23c.573-.562.939-1.152 1.099-1.769a4.28 4.28 0 0 0-.022-1.895 6.143 6.143 0 0 0-.718-1.901 44.29 44.29 0 0 0-1.027-1.904c-.178-.337-.572-.946-1.183-1.828a41.603 41.603 0 0 1-1.793-2.839 22.4 22.4 0 0 1-1.405-2.836c-.353-.931-.373-1.55-.061-1.856l.078-.077a2.94 2.94 0 0 0-.925-.395c-.334-.08-.682-.148-1.042-.202a25.43 25.43 0 0 1-1.003-.319 2.037 2.037 0 0 1-.807-.51 2.93 2.93 0 0 1-.497-.661 5.625 5.625 0 0 1-.302-.854 44.268 44.268 0 0 0-.945-2.444 12.562 12.562 0 0 0-.912-1.865 18.225 18.225 0 0 0-1.106-1.75 64.343 64.343 0 0 0-1.606-2.102c-.178-.234-.444-.739-.798-1.515a46.279 46.279 0 0 1-1.1-2.524 92.701 92.701 0 0 1-.943-2.599c-.303-.828-.478-1.396-.527-1.706l.039.039a2.332 2.332 0 0 0-.268-.351 2.031 2.031 0 0 0-.306-.389 1.452 1.452 0 0 0-.577-.353 2.07 2.07 0 0 1-.538-.392 1.895 1.895 0 0 1-.569-1.281 2.098 2.098 0 0 0-.607-1.32 2.776 2.776 0 0 0-1.347-.747 7.929 7.929 0 0 0-1.737-.286 14.385 14.385 0 0 0-1.818.023 36.39 36.39 0 0 1-1.586.025l-1.131 1.111a5.55 5.55 0 0 1-1.736-.441 4.53 4.53 0 0 0-1.736-.518 12.107 12.107 0 0 1-.966-.047 1.31 1.31 0 0 1-.848-.394c-.281-.286-.535-.675-.763-1.167a10.74 10.74 0 0 0-.607-1.32c-.33-.544-.546-.946-.647-1.205-.1-.31-.124-.568-.07-.774.054-.257.172-.501.354-.731.183-.282.406-.68.668-1.193a4.946 4.946 0 0 1 1.019-1.461 7.37 7.37 0 0 1 .701-.612c.26-.204.494-.408.702-.613.286-.281.586-.678.9-1.191.288-.539.602-1.103.943-1.693.34-.641.733-1.283 1.177-1.923.418-.667.9-1.268 1.446-1.805a7.317 7.317 0 0 1 2.102-1.451 7.326 7.326 0 0 0 2.686-2.103c.209-.256.417-.486.625-.691a4.476 4.476 0 0 1 1.168-.84c.44-.228.893-.418 1.358-.568a13.538 13.538 0 0 0 1.67-.72 31.205 31.205 0 0 1 1.593-.876c.544-.33 1.101-.621 1.67-.874a8.651 8.651 0 0 1 1.746-.565l.651.663Zm92.27-60.295c.103.104.242.376.419.816.176.44.352.931.528 1.474.202.517.365 1.021.489 1.512.125.491.186.84.185 1.046l.116-.038a.502.502 0 0 0-.118.193l-.195.191a1.971 1.971 0 0 1-.313.384 72.57 72.57 0 0 1-.351.345l.118-.192a7.575 7.575 0 0 1-1.945 1.298c-.673.252-1.433.258-2.282.018a11.452 11.452 0 0 1-.77-.316 48.434 48.434 0 0 1-2.31-1.181c-.333-.234-.564-.417-.692-.547a8.459 8.459 0 0 1-.612-.702 4.265 4.265 0 0 0-.574-.739 16.906 16.906 0 0 0-2.572-2.15 16.954 16.954 0 0 1-2.572-2.15 8.32 8.32 0 0 1-1.299-1.713 5.045 5.045 0 0 1-.64-2.055l-.195.192c-.312.306-.648.458-1.009.455-.387-.029-.788.161-1.204.569a16.664 16.664 0 0 0-2.542 3.188 17.04 17.04 0 0 1-2.62 3.264l-1.248 1.226c-.442.383-.883.791-1.326 1.226a14.607 14.607 0 0 0-2.111 2.611 13.979 13.979 0 0 1-1.994 2.496c-.078.077-.13.102-.155.076-.052-.052-.024-.207.081-.464.08-.282.094-.45.043-.502-.102-.104-.244-.066-.426.112l-.312.307c-.208.204-.288.487-.24.849.074.335.007.683-.202 1.042a6.804 6.804 0 0 1-1.095 1.383l-1.288 1.264c-.26.256-.65.613-1.169 1.073-.52.459-1.065.893-1.636 1.3a9.707 9.707 0 0 1-1.787.912c-.595.176-1.097.107-1.506-.206-.21.359-.264.694-.164 1.004.101.259.214.53.341.815.152.259.253.544.302.853.023.284-.148.631-.512 1.04-.677.767-.915 1.461-.715 2.082.201.62.557 1.191 1.068 1.711.281.286.575.559.882.82.307.26.601.534.882.82a87.702 87.702 0 0 1 2.989 3.197c.97 1.04 1.966 2.08 2.988 3.12l1.763 1.795a43.729 43.729 0 0 0 2.303 2.031c.794.6 1.563 1.097 2.307 1.49.719.367 1.285.424 1.7.17.259-.153.518-.331.778-.535l.702-.69a15.66 15.66 0 0 0 2.346-2.918 16.423 16.423 0 0 1 2.385-2.957 4.453 4.453 0 0 1 1.168-.84c.44-.228.829-.509 1.168-.841.494-.485.641-1.09.441-1.813-.199-.776-.554-1.526-1.063-2.253a17.594 17.594 0 0 0-1.682-2.18 57.034 57.034 0 0 0-1.379-1.482 32.437 32.437 0 0 0-1.956-1.835 67.836 67.836 0 0 1-1.956-1.912l.234-.23a7.461 7.461 0 0 1 2.14-1.489 7.299 7.299 0 0 0 2.101-1.451 4.45 4.45 0 0 0 .547-.614c.511.52 1.113.951 1.806 1.292a6.747 6.747 0 0 1 1.845 1.331c.664.676.722 1.463.172 2.361a9.48 9.48 0 0 1 1.581.594c.487.236.923.549 1.306.939.281.286.536.598.765.935.204.311.446.61.727.896.256.26.538.392.848.394.309-.049.554.018.733.2.306.312.559.83.759 1.554a4.48 4.48 0 0 0 1.067 1.788 15.334 15.334 0 0 0 1.919 1.641c.718.522 1.473 1.057 2.268 1.606a68.339 68.339 0 0 1 2.382 1.722 19.015 19.015 0 0 1 2.188 1.914c.408.417.804.871 1.186 1.364.409.468.739.987.992 1.556a5.2 5.2 0 0 1 .488 1.667 4.187 4.187 0 0 1-.093 1.778c-.545.434-1.102.7-1.67.798a5.622 5.622 0 0 1-1.74-.054 8.324 8.324 0 0 1-1.657-.672c-.538-.34-1.05-.706-1.537-1.097a17.478 17.478 0 0 1-1.996-1.719c-.562-.572-1.164-.925-1.808-1.06-.643-.186-1.43-.051-2.362.404-.906.431-2.088 1.361-3.544 2.792-.416.409-.976 1.036-1.679 1.88a19.322 19.322 0 0 0-1.841 2.652c-.576.923-.971 1.848-1.185 2.774-.188.901-.014 1.624.522 2.17.307.313.639.599.998.86.359.209.692.47.999.782.255.26.498.533.727.819.23.285.485.571.766.857.69.702 1.419 1.366 2.187 1.992.742.599 1.458 1.25 2.148 1.952a11.327 11.327 0 0 1 1.873 2.531c.533.907 1.17 1.737 1.911 2.491.818.833 1.664 1.304 2.54 1.415.876.059 1.754-.088 2.634-.441a11.559 11.559 0 0 0 2.488-1.525 26.508 26.508 0 0 0 2.143-1.876 42.188 42.188 0 0 0 3.515-3.913 42.344 42.344 0 0 1 3.515-3.914 33.09 33.09 0 0 1 2.456-2.182 33.104 33.104 0 0 0 2.456-2.183 79.114 79.114 0 0 0 1.951-1.993 12.396 12.396 0 0 0 1.684-2.422c.472-.872.75-1.733.835-2.583.085-.902-.178-1.794-.789-2.676-.178-.233-.254-.44-.226-.62.028-.232.081-.438.16-.618.079-.231.133-.437.16-.617.028-.18-.048-.361-.227-.544-.205-.208-.512-.365-.924-.472a4.242 4.242 0 0 1-1.079-.473 13.49 13.49 0 0 1-1.651-1.291l-1.495-1.521c-.766-.781-1.314-1.572-1.642-2.374-.327-.854-.836-1.631-1.526-2.334a5.696 5.696 0 0 0-.614-.546 214 214 0 0 0-.575-.586c-.153-.156-.189-.427-.109-.813.081-.386.226-.784.436-1.195.185-.436.394-.847.63-1.232.235-.384.431-.653.587-.806.65-.639 1.413-.929 2.289-.87.851.034 1.699.273 2.546.719.873.42 1.694.943 2.461 1.568a23.546 23.546 0 0 1 1.881 1.68c.792.806 1.621 1.78 2.487 2.922a49.687 49.687 0 0 1 2.52 3.658 54.064 54.064 0 0 1 2.325 3.849 48.253 48.253 0 0 1 1.71 3.456c.202.518.314.944.337 1.28.049.309.046.619-.008.928-.054.257-.121.553-.202.887-.079.283-.109.67-.087 1.16.022.438-.228.99-.75 1.656-.495.64-1.068 1.28-1.718 1.918-.494.486-.975.933-1.443 1.341-.467.408-.818.728-1.052.958-.859.843-1.459 1.637-1.8 2.381-.316.719-.708 1.309-1.176 1.769-.338.332-.623.484-.855.456-.257-.054-.49.022-.698.226-.182.179-.274.423-.277.732-.003.31-.16.618-.472.924l-.976.959c-.337.28-.675.587-1.013.919a149.991 149.991 0 0 0-5.659 5.867 201.337 201.337 0 0 1-5.544 5.983 35.03 35.03 0 0 0-3.48 4.339 28.16 28.16 0 0 1-3.557 4.262c-.468.459-1.053.931-1.753 1.415-.675.51-1.4.916-2.176 1.218a5.726 5.726 0 0 1-2.246.367c-.773-.058-1.454-.387-2.041-.985-.562-.572-.891-1.322-.986-2.251a12.217 12.217 0 0 1 .064-2.9c.164-1.03.379-2.034.646-3.011.241-1.003.39-1.866.448-2.587a6.515 6.515 0 0 1-.614-.547l-.537-.546-1.149-1.17a6.543 6.543 0 0 1-.916-1.4c-.178-.286-.316-.686-.415-1.203-.098-.568-.262-.969-.492-1.203a1.566 1.566 0 0 0-.615-.392 16.8 16.8 0 0 1-.655-.354c-.976-.421-1.797-.841-2.463-1.259-.641-.444-1.345-1.056-2.111-1.836l-1.188-1.21c-.332-.389-.638-.753-.919-1.091-.28-.389-.547-.791-.801-1.206-.254-.466-.52-.997-.798-1.592-.283-.08-.668-.238-1.156-.474-.488-.237-.834-.459-1.038-.667l-4.897-6.076c-.102-.052-.243-.17-.422-.352a3.091 3.091 0 0 1-.573-.817 3.27 3.27 0 0 0-.611-.856 7.166 7.166 0 0 0-2.037-1.449 7.625 7.625 0 0 1-2.075-1.488c-.204-.208-.395-.506-.572-.894-.177-.388-.38-.803-.608-1.243a15.09 15.09 0 0 0-.722-1.437 7.626 7.626 0 0 0-1.147-1.48c-.358-.364-.755-.587-1.193-.668a2.402 2.402 0 0 1-1.116-.667 2.913 2.913 0 0 1-.685-1.166 3.143 3.143 0 0 0-.763-1.245 5.048 5.048 0 0 0-1.768-1.175 24.57 24.57 0 0 0-1.965-.83c-.951-.343-1.709-.621-2.274-.832-.565-.263-1.08-.396-1.544-.4-.489-.03-.993.107-1.512.412-.517.253-1.179.724-1.984 1.413a3.63 3.63 0 0 1-1.36.723 5.684 5.684 0 0 1-1.625.063 6.906 6.906 0 0 1-1.582-.439 3.763 3.763 0 0 1-1.269-.824c-.459-.468-.635-1.062-.525-1.783.084-.747.361-1.531.833-2.352a17.274 17.274 0 0 1 1.724-2.614c.679-.922 1.37-1.78 2.073-2.573a51.11 51.11 0 0 1 1.953-2.226c.624-.665 1.08-1.189 1.367-1.573.444-.589.9-1.139 1.368-1.651.469-.511.963-1.023 1.483-1.534a55.826 55.826 0 0 1 3.158-2.872 87.035 87.035 0 0 0 3.159-2.95 22.833 22.833 0 0 0 2.892-3.455 23.643 23.643 0 0 1 2.931-3.493 17.29 17.29 0 0 1 3.271-2.524 18.836 18.836 0 0 0 3.154-2.485c.91-.895 1.705-1.88 2.385-2.957a14.702 14.702 0 0 1 2.347-2.996c.39-.383.818-.727 1.285-1.032 1.185.062 2.217.071 3.094.027.902-.069 1.74-.049 2.513.061a6.464 6.464 0 0 1 2.314.639c.796.342 1.693.943 2.691 1.803.359.312.78.715 1.266 1.21.46.468.933.923 1.419 1.366.46.416.921.755 1.383 1.017.488.237.9.266 1.236.089.358.364.355.725-.009 1.082.384.339.832.639 1.345.902.488.236.989.485 1.502.748.488.236.975.498 1.463.786.461.262.858.562 1.19.9Zm-24.354 42.787c-.156.154-.273.32-.352.5-.079.18-.055.386.072.619 1.55-.398 2.867-.619 3.95-.661 1.084-.093 1.935-.137 2.554-.132.644-.02 1.07-.081 1.277-.182.182-.127.172-.45-.03-.967-.252-.673-.725-1.076-1.42-1.211-.669-.161-1.391-.142-2.166.058a8.42 8.42 0 0 0-2.212.87c-.725.354-1.283.723-1.673 1.106Zm118.681-108.246c.767.78 1.583 1.767 2.449 2.96a50.119 50.119 0 0 1 2.518 3.89 75.081 75.081 0 0 1 2.475 4.391 85.324 85.324 0 0 1 2.319 4.546 71.071 71.071 0 0 1 1.818 4.269c.53 1.32.932 2.484 1.207 3.492.099.413.121.929.064 1.547a35.04 35.04 0 0 0-.132 1.816 13.365 13.365 0 0 0-.054 1.74c.021.542.159.942.414 1.203-.182.23-.443.614-.783 1.153a15.391 15.391 0 0 0-1.06 1.731c-.34.59-.629 1.18-.866 1.771-.237.539-.318.925-.242 1.158.25.827.426 1.37.527 1.629.126.233.176.414.15.542-.053.103-.196.269-.43.499-.234.179-.599.64-1.095 1.383a22.96 22.96 0 0 0-.668 1.115c-.235.437-.497.898-.785 1.386-.262.461-.537.884-.824 1.269-.261.41-.496.717-.704.921a7.351 7.351 0 0 1-1.945 1.375 6.906 6.906 0 0 0-1.907 1.337 3.993 3.993 0 0 0-.822 1.114c-.605 1.31-1.272 2.477-2.003 3.502-.705.999-1.578 2.01-2.618 3.032l-6.229 4.663a9.79 9.79 0 0 1-1.056 1.421c-.365.461-.756.896-1.172 1.305-.52.511-1.066.996-1.637 1.455-.545.433-1.116.866-1.713 1.299a5.509 5.509 0 0 0-1.463-.709l-1.542-.632a26.587 26.587 0 0 1-1.502-.671 5.171 5.171 0 0 1-1.345-.978c-.664-.677-.968-1.324-.911-1.942.032-.644.257-1.274.674-1.889.393-.641.85-1.269 1.371-1.883a8.315 8.315 0 0 0 1.217-2.116c.29-.745.362-1.531.214-2.357-.147-.826-.706-1.734-1.677-2.722a14.738 14.738 0 0 0-1.919-1.641 30.904 30.904 0 0 0-2.075-1.488 387.306 387.306 0 0 0-2.114-1.527 19.381 19.381 0 0 1-1.88-1.679 9.847 9.847 0 0 1-1.148-1.402c-.356-.519-.751-1-1.186-1.442a20.284 20.284 0 0 0-2.533-2.188 26.493 26.493 0 0 1-2.532-2.265 34.125 34.125 0 0 1-2.565-2.923 35.672 35.672 0 0 0-2.604-2.962 16.868 16.868 0 0 0-2.802-2.306c-1-.705-1.946-1.513-2.841-2.423a39.206 39.206 0 0 1-1.417-1.521 39.945 39.945 0 0 0-1.418-1.52 22.887 22.887 0 0 0-1.687-1.562 12.766 12.766 0 0 0-1.922-1.332 11.69 11.69 0 0 1-2.19-1.605 11.1 11.1 0 0 0-1.882-1.447 3.912 3.912 0 0 0-2.045-.598c-.747-.033-1.639.282-2.676.943-.337.229-.635.368-.893.417a6.911 6.911 0 0 0-.735.032 2.71 2.71 0 0 0-.853.148c-.284.074-.647.277-1.088.609-1.297.968-2.495.893-3.594-.225-.613-.625-1.033-1.286-1.259-1.984a7.269 7.269 0 0 1-.406-2.208c-.019-.747.039-1.495.175-2.241.136-.798.259-1.583.369-2.356.165-1.184.495-2.122.991-2.814a12.609 12.609 0 0 1 1.72-2.073l1.678-1.648a43.559 43.559 0 0 0 2.146-2.263 30.95 30.95 0 0 1 2.148-2.34c.442-.434.91-.843 1.403-1.225a11.07 11.07 0 0 1 1.634-1.068c.31-.152.621-.278.931-.379.311-.152.583-.343.817-.573.364-.357.574-.768.63-1.232.03-.489.149-.836.357-1.041.052-.051.104-.05.155.002.051.052.102.13.152.233l.154.156c.153.156.334.132.542-.072.13-.128.144-.295.043-.503-.075-.232-.022-.49.161-.772.259-.1.492-.15.698-.148.18-.024.348-.036.503-.034.18-.025.361-.075.543-.15.207-.102.427-.267.661-.497a16.304 16.304 0 0 0 1.524-1.727c.444-.641.939-1.229 1.485-1.766a7.44 7.44 0 0 1 2.295-1.565 11.186 11.186 0 0 1 2.559-.751 15.688 15.688 0 0 1 2.71-.363 88.517 88.517 0 0 0 2.748-.169 7.538 7.538 0 0 0 1.82-.332 15.015 15.015 0 0 1 1.591-.566 6.19 6.19 0 0 1 1.588-.334c.542-.072 1.173.024 1.892.288.797.29 1.62.53 2.469.718.85.136 1.686.285 2.51.447.824.111 1.66.26 2.509.448.824.162 1.647.401 2.469.718a26.647 26.647 0 0 1 5.965 3.339c1.87 1.332 3.727 2.65 5.572 3.955.794.549 1.615 1.097 2.461 1.646.82.523 1.562 1.123 2.227 1.799.357.364.637.779.839 1.245.203.466.482.881.84 1.245.23.234.474.403.73.509.257.105.527.198.81.278.283.079.578.198.886.356.308.157.616.392.922.704Zm-9.082 3.787a14.502 14.502 0 0 0-3.342-2.543 12.53 12.53 0 0 0-3.971-1.389 2.731 2.731 0 0 0-.45-1.551 8.094 8.094 0 0 0-.995-1.246c-.383-.39-.792-.755-1.228-1.094a23.421 23.421 0 0 1-1.15-1.093 1.053 1.053 0 0 0-.771-.316 3.49 3.49 0 0 0-.89.031 5.576 5.576 0 0 0-.928.069 1.852 1.852 0 0 1-.927-.163 9.922 9.922 0 0 1-.886-.433c-.23-.183-.448-.352-.653-.509a3.918 3.918 0 0 0-.73-.431 5.8 5.8 0 0 0-1.119-.358 6.13 6.13 0 0 1-.887-.279 2.957 2.957 0 0 1-.845-.626 4.338 4.338 0 0 1-.688-.934c-.308-.106-.643-.109-1.005-.009a3.71 3.71 0 0 0-1.125.415c-.415.203-.842.47-1.284.801-.39.383-.921.675-1.593.876a59.83 59.83 0 0 1-2.093.522c-.749.174-1.486.387-2.21.638a4.48 4.48 0 0 0-1.788 1.067 17.787 17.787 0 0 0-2.032 2.38 79.48 79.48 0 0 1-1.879 2.536 26.997 26.997 0 0 1-1.719 1.995 12.656 12.656 0 0 0-1.72 2.074c-.444.692-.682 1.411-.715 2.159-.058.721.284 1.459 1.025 2.213.894.91 1.853 1.783 2.877 2.617 1.05.808 2.06 1.706 3.031 2.695a97.82 97.82 0 0 1 5.783 6.431 112.798 112.798 0 0 0 5.822 6.394 37.487 37.487 0 0 0 2.992 2.733 36.664 36.664 0 0 1 2.992 2.734 32.289 32.289 0 0 1 3.406 4.09 36.656 36.656 0 0 0 3.444 4.053l1.648 1.677a12.853 12.853 0 0 0 1.843 1.563c.64.444 1.321.747 2.041.908.721.161 1.469.064 2.246-.29a341.23 341.23 0 0 1 3.223-1.48 11.526 11.526 0 0 0 2.919-2.101 4.926 4.926 0 0 0 1.176-1.846c.239-.745.541-1.451.908-2.119.236-.436.524-.897.863-1.384.34-.538.667-1.064.981-1.577.288-.539.525-1.078.71-1.618a5.002 5.002 0 0 0 .247-1.699 23.126 23.126 0 0 1-.018-2.282c.032-.696.309-1.428.831-2.197.261-.359.354-.654.279-.887a2.2 2.2 0 0 0-.38-.777 9.974 9.974 0 0 1-.495-.893c-.177-.337-.226-.724-.144-1.162.109-.721.064-1.392-.137-2.012a6.782 6.782 0 0 0-.796-1.825 18.49 18.49 0 0 0-1.146-1.634 18.225 18.225 0 0 1-1.106-1.75 75.907 75.907 0 0 1-2.129-4.118 13.153 13.153 0 0 0-2.596-3.813c-.281-.286-.589-.469-.923-.549a2.213 2.213 0 0 1-.962-.589c-.153-.156-.217-.272-.19-.349l.08-.386a1.266 1.266 0 0 0-.111-.504c-.05-.207-.254-.492-.611-.856Z"/>
    </g>
    <defs>
        <clipPath id="a">
            <path fill="#fff" d="M0 0h661.333v661.333H0z"/>
        </clipPath>
    </defs>
</svg>