<?xml version="1.0" encoding="utf-8"?>
<svg viewBox="0 0 38 38" width="38" height="38" fill="currentColor" xmlns="http://www.w3.org/2000/svg" aria-hidden="true">
    <g>
        <path d="M9.886 2.888c1.181.255 2.051.653 2.709 1.112A27.5 27.5 0 0122 3.218C18.788-.265 14.328-.69 9.758.842a1.05 1.05 0 00.128 2.046zM5.21 22.914c2.225-1.959 4.762-2.407 7.54-1.332 2.58 1.031 6.798 2.249 10.645 2.873-.277-.44-.28-.442-.298-.475-1.038-1.818-3.314-6.537-2.039-11.07.752-2.672 2.588-4.821 5.457-6.39.024-.012.02-.01.485-.267-3.501-1.335-7.48-1.529-11.158-.932-3.328.537-5.065 1.383-6.695 2.47C1.221 13.064-1.045 20.216.416 26.22v.002c1.713 7.03 8.873 11.432 9.177 11.616.17.103.366.161.586.161.314 0 2.285-.067 3.653-1.692 1.21-1.436 1.554-3.573 1.023-6.353a1.122 1.122 0 00-1.552-.82c-.019.008-1.878.816-4.146.73-2.724-.103-4.865-1.425-6.373-3.932.389-.681 1.204-1.945 2.425-3.019z"/>
        <path d="M37.987 22.274C37.023 15.992 34.273 10.84 29.432 8l-1.864 1.02c-2.27 1.23-3.71 2.87-4.278 4.874-1.015 3.58.891 7.492 1.773 9.03l1.23 1.935c3.663.334 7.464.132 10.675-1.243.382-.164.654-.26.86-.582.144-.226.2-.496.159-.76zm-8.16-5.748a1.096 1.096 0 110-2.192 1.096 1.096 0 010 2.192z"/>
    </g>
</svg>