<?xml version="1.0" encoding="utf-8"?>
<svg viewBox="0 0 64 64" fill="currentColor" xmlns="http://www.w3.org/2000/svg" aria-hidden="true">
    <path d="m57 41c0 .54999-.21997 1.04999-.59003 1.40997-.35998.37-.85998.59003-1.40997.59003-1.09998 0-2-.90002-2-2v2c0 .54999-.21997 1.04999-.59003 1.40997-.35998.37-.85998.59003-1.40997.59003-1.09998 0-2-.90002-2-2v2c0 .54999-.21997 1.04999-.59003 1.40997-.35998.37-.85998.59003-1.40997.59003-1.09998 0-2-.90002-2-2v-2c0 .54999-.21997 1.04999-.59003 1.40997-.35998.37-.85998.59003-1.40997.59003-1.09998 0-2-.90002-2-2v-14h-1l-2.38 2.38c-.40002.39996-.94.62-1.5.62-.58002 0-1.12-.23999-1.5-.62s-.62-.92004-.62-1.5c0-.56.21997-1.10004.62-1.5l5.38-5.38h1v-4h-18v4h1l5.38 5.38c.40002.39996.62.94.62 1.5 0 .57996-.23999 1.12-.62 1.5s-.91998.62-1.5.62c-.56 0-1.09998-.22003-1.5-.62l-2.38-2.38h-1v14c0 1.09998-.90002 2-2 2-.54999 0-1.04999-.22003-1.40997-.59003-.37006-.35998-.59003-.85998-.59003-1.40997v2c0 1.09998-.90002 2-2 2-.54999 0-1.04999-.22003-1.40997-.59003-.37006-.35998-.59003-.85998-.59003-1.40997v-2c0 1.09998-.90002 2-2 2-.54999 0-1.04999-.22003-1.40997-.59003-.37006-.35998-.59003-.85998-.59003-1.40997v-2c0 1.09998-.90002 2-2 2-.54999 0-1.04999-.22003-1.40997-.59003-.37006-.35998-.59003-.85998-.59003-1.40997v-22h-5v22h2c0 2.75684 2.24316 5 5 5v2c-3.85986 0-7-3.14014-7-7v20h60v-19c0 3.30859-2.69141 6-6 6v-2c2.20557 0 4-1.79443 4-4h2v-23h-5zm-40 10.99658c-1.79248 0-3.58496-.68213-4.94971-2.04688l1.41406-1.41406c1.94922 1.94922 5.12207 1.94922 7.07129 0l1.41406 1.41406c-1.36474 1.36475-3.15722 2.04688-4.9497 2.04688zm26-1.99658c-3.85986 0-7-3.14014-7-7h2c0 2.75684 2.24316 5 5 5z"/>
    <path d="m41 2h16v17h-16z"/>
    <path d="m7 2h16v17h-16z"/>
    <path d="m16 42v-13c0-.55231-.44769-1-1-1s-1 .44769-1 1v13c0 .55225.44769 1 1 1s1-.44775 1-1z"/>
    <path d="m12 40v-11c0-.55231-.44769-1-1-1s-1 .44769-1 1v11c0 .55225.44769 1 1 1s1-.44775 1-1z"/>
    <path d="m20 42v-13c0-.55231-.44769-1-1-1s-1 .44769-1 1v13c0 .55225.44769 1 1 1s1-.44775 1-1z"/>
    <path d="m50 42v-13c0-.55231-.44769-1-1-1s-1 .44769-1 1v13c0 .55225.44769 1 1 1s1-.44775 1-1z"/>
    <path d="m54 40v-11c0-.55231-.44769-1-1-1s-1 .44769-1 1v11c0 .55225.44769 1 1 1s1-.44775 1-1z"/>
    <path d="m46 42v-13c0-.55231-.44769-1-1-1s-1 .44769-1 1v13c0 .55225.44769 1 1 1s1-.44775 1-1z"/>
</svg>